<?xml version="1.0" standalone="no"?><!DOCTYPE svg PUBLIC "-//W3C//DTD SVG 1.1//EN"
        "http://www.w3.org/Graphics/SVG/1.1/DTD/svg11.dtd">
<svg t="1611402027452" class="icon" viewBox="0 0 1024 1024" version="1.1" xmlns="http://www.w3.org/2000/svg" p-id="842"
     xmlns:xlink="http://www.w3.org/1999/xlink" width="16" height="16">
    <defs>
        <style type="text/css"></style>
    </defs>
    <path d="M511.27 64c-247.42 0-448 200.58-448 448s200.58 448 448 448 448-200.58 448-448-200.58-448-448-448zM737.5 405.51L474.42 668.6c-13.84 13.84-36.27 13.84-50.11 0L286.5 530.79c-13.84-13.84-13.84-36.27 0-50.11 13.84-13.84 36.27-13.84 50.11 0l112.75 112.75L687.39 355.4c13.84-13.84 36.27-13.84 50.11 0 13.84 13.84 13.84 36.28 0 50.11z"
          p-id="843" fill="#3992e0"></path>
</svg>