<?xml version="1.0" standalone="no"?><!DOCTYPE svg PUBLIC "-//W3C//DTD SVG 1.1//EN" "http://www.w3.org/Graphics/SVG/1.1/DTD/svg11.dtd"><svg t="1611324835510" class="icon" viewBox="0 0 1024 1024" version="1.1" xmlns="http://www.w3.org/2000/svg" p-id="824" width="16" height="16" xmlns:xlink="http://www.w3.org/1999/xlink"><defs><style type="text/css"></style></defs><path d="M680.3 781c42.9-24.8 100.1-11.1 146.1 29.6 19.9 17.6 50.5 16.3 66.8-4.8 29.8-38.6 53.9-81.8 71-128.4 8.8-24-4.4-49.9-28.3-58.9-54.7-20.5-92.1-61.8-92.1-109.5 0-47.2 36.6-88.1 90.4-108.8 24-9.2 37-35.4 27.8-59.4-19-50-46.2-96-79.9-136.5-15.7-18.8-43.4-21.7-63-7-43.6 32.8-94.7 42.2-133.8 19.6-39.5-22.8-56.8-72.4-49.8-127.2 3.1-24.3-13.1-46.9-37.2-51.3-27.9-5.1-56.7-7.8-86.2-7.8-26.4 0-52.2 2.1-77.4 6.2-23.1 3.7-40 24.5-38.3 47.9 3.7 50.6-13.8 95.4-50.8 116.7-38.2 22.1-87.8 13.6-130.8-17.3-19.1-13.8-45.5-10.8-61.3 6.8-39.4 44-70.9 95.3-92 151.7-8.8 23.4 2.9 49.5 26 58.9 52 21.1 87.1 61.2 87.1 107.4 0 46.4-35.5 86.8-87.9 107.7-23.4 9.4-35.9 35-27.3 58.7 19 52.7 47 101.1 82.1 143.4 16.5 19.9 46.1 21.4 65.9 4.6 45.6-38.8 101.3-51.4 143.3-27.1 41.9 24.2 58.9 78.6 48.3 137.2-4.6 25.1 12.1 49.6 37.3 53.6 24.7 3.9 50 6 75.8 6 29.4 0 58.1-2.7 86-7.7 26.1-4.7 42-30.8 35.9-56.6-14.5-62.5 1.9-122 46.3-147.7z m-58-148.5C456.3 751.2 273.1 568 391.8 402c2.9-4 6.5-7.6 10.5-10.5C568.3 272.8 751.6 456 632.9 622c-2.9 4-6.5 7.7-10.6 10.5z" p-id="825" fill="#8a8a8a"></path></svg>