<?xml version="1.0" standalone="no"?>
<!DOCTYPE svg PUBLIC "-//W3C//DTD SVG 20010904//EN"
 "http://www.w3.org/TR/2001/REC-SVG-20010904/DTD/svg10.dtd">
<svg version="1.0" xmlns="http://www.w3.org/2000/svg"
 width="50.000000pt" height="50.000000pt" viewBox="0 0 50.000000 50.000000"
 preserveAspectRatio="xMidYMid meet">

<g transform="translate(0.000000,50.000000) scale(0.100000,-0.100000)"
fill="#000000" stroke="none">
<path d="M0 250 l0 -250 250 0 250 0 0 250 0 250 -250 0 -250 0 0 -250z m338
11 c29 -93 52 -176 52 -186 0 -12 -7 -15 -27 -13 -24 3 -30 10 -43 56 l-15 52
-56 0 -56 0 -15 -52 c-13 -47 -18 -53 -41 -53 -15 0 -28 4 -29 8 0 4 23 86 52
182 l53 175 37 0 36 0 52 -169z"/>
<path d="M231 318 c-27 -107 -28 -98 19 -98 35 0 41 3 36 18 -3 9 -12 43 -21
75 -9 31 -17 57 -18 57 -1 0 -8 -24 -16 -52z"/>
</g>
</svg>
